#!OML:ASF X:\für Bonn\!DataBase\2005_08_10_Bjorn_Final\c3d\bjorn.ASF
:FULLY-SPECIFIED
:DEGREES
187
root -12.4913 18.8554 2.12344 -179.581 -225.329 -190.971
lowerback -5.11832 -4.42468 3.25455
upperback 6.01739 -6.28721 0.874767
thorax 8.97913 -2.86919 -1.67236
lowerneck -1.76074 7.52306 5.19053
upperneck 4.74218 10.1761 -5.98098
head 2.46441 5.03223 -2.52029
rclavicle -3.97569e-016 -3.10104e-014
rhumerus -59.5638 6.76799 -91.3954
rradius 76.9006
rwrist 2.76018
rhand -24.8938 23.9352
rfingers 7.12502
rthumb 1.61418 -6.03842
lclavicle -3.97569e-016 -3.10104e-014
lhumerus -28.9378 -32.8774 94.2119
lradius 92.7519
lwrist -2.44589
lhand -40.4687 -26.2857
lfingers 7.12502
lthumb -13.4195 3.26206
rfemur -37.1102 -5.37223 14.5822
rtibia 32.8811
rfoot -5.69788 14.6912
rtoes -27.0528
lfemur 11.6304 -2.54989 -20.4018
ltibia 28.8389
lfoot 4.06899 -5.85906
ltoes 4.15812
188
root -12.2865 18.8431 2.36027 -180.446 -226.075 -191.932
lowerback -5.11815 -4.55289 4.03304
upperback 6.04612 -6.55559 1.18865
thorax 8.95502 -2.95949 -1.7996
lowerneck -1.9997 7.57381 5.02115
upperneck 4.88829 10.257 -6.12194
head 2.56082 5.06133 -2.52264
rclavicle 6.91771e-014 -8.74653e-015
rhumerus -59.6127 6.43687 -90.8859
rradius 77.2198
rwrist 2.62531
rhand -25.0403 23.4174
rfingers 7.12502
rthumb 1.47265 -6.55729
lclavicle 6.91771e-014 -8.74653e-015
lhumerus -29.2562 -33.4652 94.4913
lradius 92.4952
lwrist -2.48954
lhand -40.6082 -26.8148
lfingers 7.12502
lthumb -13.5541 2.72407
rfemur -36.3373 -4.77966 14.9115
rtibia 31.9421
rfoot -5.43125 15.0128
rtoes -28.2846
lfemur 11.0727 -2.91023 -19.6108
ltibia 31.7468
lfoot 2.7433 -2.3597
ltoes 1.55929
189
root -12.0825 18.8173 2.59278 -181.371 -226.742 -192.903
lowerback -5.04709 -4.64206 4.82004
upperback 6.07093 -6.76503 1.48946
thorax 8.88319 -3.02143 -1.92961
lowerneck -2.30965 7.6239 4.75352
upperneck 5.09263 10.3355 -6.13931
head 2.67475 5.08792 -2.46319
rclavicle 1.09332e-014 1.90833e-014
rhumerus -59.526 6.11422 -90.4469
rradius 77.4484
rwrist 2.50903
rhand -25.0099 23.228
rfingers 7.12502
rthumb 1.50202 -6.74647
lclavicle 1.09332e-014 1.90833e-014
lhumerus -29.6167 -33.9201 94.8929
lradius 92.1314
lwrist -2.56503
lhand -40.7497 -27.3505
lfingers 7.12502
lthumb -13.6904 2.17923
rfemur -35.628 -4.25584 15.2733
rtibia 31.4309
rfoot -4.97118 15.0098
rtoes -28.0951
lfemur 10.5137 -3.25454 -18.8789
ltibia 34.7614
lfoot 1.19317 1.40425
ltoes -0.879525
190
root -11.8786 18.7844 2.82277 -182.169 -227.35 -193.623
lowerback -4.93766 -4.71856 5.41246
upperback 6.10979 -6.92974 1.71675
thorax 8.81696 -3.07156 -2.02146
lowerneck -2.71341 7.67912 4.55038
upperneck 5.48479 10.4274 -6.1594
head 2.87541 5.11816 -2.40931
rclavicle 5.4467e-014 -3.10104e-014
rhumerus -59.3561 5.85018 -90.1169
rradius 77.6562
rwrist 2.58212
rhand -24.7019 23.273
rfingers 7.12502
rthumb 1.79952 -6.6992
lclavicle 5.4467e-014 -3.10104e-014
lhumerus -29.9839 -34.2309 95.2902
lradius 91.7506
lwrist -2.68432
lhand -40.9491 -27.735
lfingers 7.12502
lthumb -13.8826 1.78161
rfemur -34.9977 -3.89806 15.5317
rtibia 31.3817
rfoot -4.60276 14.8624
rtoes -27.7727
lfemur 9.96107 -3.5373 -18.3616
ltibia 37.8014
lfoot -0.395593 4.92997
ltoes -3.03959
191
root -11.6755 18.7423 3.05099 -182.751 -227.912 -193.98
lowerback -4.76691 -4.75558 5.76981
upperback 6.14306 -7.00394 1.81598
thorax 8.7222 -3.09019 -2.10337
lowerneck -2.95931 7.70063 4.45877
upperneck 5.80624 10.4712 -6.16765
head 3.02773 5.13011 -2.38037
rclavicle 6.91771e-014 -2.06736e-014
rhumerus -59.0932 5.57018 -89.9062
rradius 77.7699
rwrist 2.77968
rhand -24.208 23.4456
rfingers 7.12502
rthumb 2.27647 -6.52201
lclavicle 6.91771e-014 -2.06736e-014
lhumerus -30.3674 -34.5012 95.6717
lradius 91.3704
lwrist -2.90919
lhand -41.1836 -27.8214
lfingers 7.12502
lthumb -14.1085 1.6796
rfemur -34.4355 -3.90517 15.7018
rtibia 31.7388
rfoot -4.58209 14.9005
rtoes -29.3317
lfemur 9.42607 -3.74238 -18.1281
ltibia 40.7942
lfoot -1.77161 8.17889
ltoes -5.38562
192
root -11.4732 18.6933 3.27719 -183.277 -228.417 -194.184
lowerback -4.5208 -4.75213 6.02152
upperback 6.18167 -7.00255 1.85764
thorax 8.59792 -3.07829 -2.1733
lowerneck -2.94102 7.68462 4.39472
upperneck 5.8284 10.4591 -6.21791
head 3.03048 5.12169 -2.38698
rclavicle -6.40087e-014 3.26007e-014
rhumerus -58.7989 5.30434 -89.7822
rradius 77.8236
rwrist 2.88853
rhand -23.6772 23.7458
rfingers 7.12502
rthumb 2.78911 -6.21571
lclavicle -6.40087e-014 3.26007e-014
lhumerus -30.8025 -34.6479 96.1095
lradius 90.9067
lwrist -3.17436
lhand -41.3708 -27.6522
lfingers 7.12502
lthumb -14.2889 1.83619
rfemur -33.9426 -4.15733 15.8996
rtibia 32.4852
rfoot -4.9662 15.089
rtoes -32.5149
lfemur 8.875 -3.88373 -18.0049
ltibia 43.7735
lfoot -2.77651 11.0807
ltoes -6.92789
193
root -11.2729 18.6453 3.50237 -183.818 -228.862 -194.388
lowerback -4.22762 -4.7073 6.2154
upperback 6.2438 -6.93773 1.92255
thorax 8.48611 -3.03909 -2.17835
lowerneck -2.81084 7.64522 4.29277
upperneck 5.60272 10.4082 -6.28033
head 2.9238 5.09775 -2.40027
rclavicle 5.92378e-014 -4.77083e-014
rhumerus -58.4426 5.21074 -89.8169
rradius 78.0456
rwrist 2.42971
rhand -23.3326 23.6729
rfingers 7.12502
rthumb 3.12188 -6.28398
lclavicle 5.92378e-014 -4.77083e-014
lhumerus -31.2233 -34.6239 96.6492
lradius 90.2981
lwrist -3.43076
lhand -41.556 -27.4154
lfingers 7.12502
lthumb -14.4674 2.06031
rfemur -33.3738 -4.13258 15.9612
rtibia 33.5536
rfoot -5.59077 15.2222
rtoes -34.2017
lfemur 8.23556 -3.94782 -17.8411
ltibia 46.7117
lfoot -3.42678 13.1515
ltoes -6.54642
194
root -11.0773 18.5739 3.72356 -184.593 -229.263 -194.831
lowerback -3.87015 -4.64813 6.55616
upperback 6.34337 -6.86198 2.03329
thorax 8.36965 -2.9856 -2.20997
lowerneck -2.68617 7.59836 4.13911
upperneck 5.24453 10.3398 -6.31504
head 2.76725 5.06648 -2.39748
rclavicle -2.42517e-014 2.38542e-015
rhumerus -57.9347 5.2988 -89.8966
rradius 78.2061
rwrist 1.70652
rhand -23.1578 23.7225
rfingers 7.12502
rthumb 3.29072 -6.23181
lclavicle -2.42517e-014 2.38542e-015
lhumerus -31.7848 -34.3832 97.2811
lradius 89.645
lwrist -3.8118
lhand -41.7555 -27.2756
lfingers 7.12502
lthumb -14.6596 2.1862
rfemur -32.7574 -4.18167 16.1635
rtibia 34.8752
rfoot -6.31965 15.5338
rtoes -34.7584
lfemur 7.51885 -4.0719 -17.5225
ltibia 49.6597
lfoot -3.77682 14.1336
ltoes -3.95365
195
root -10.8835 18.4886 3.94213 -185.589 -229.564 -195.454
lowerback -3.38971 -4.52617 7.00669
upperback 6.46286 -6.69664 2.1706
thorax 8.20357 -2.88333 -2.25583
lowerneck -2.79799 7.54082 3.98935
upperneck 5.15354 10.2589 -6.26111
head 2.73856 5.02396 -2.35423
rclavicle 8.38871e-014 -6.04305e-014
rhumerus -57.2641 5.44421 -90.0077
rradius 78.3183
rwrist 0.730116
rhand -23.06 23.737
rfingers 7.12502
rthumb 3.38517 -6.21583
lclavicle 8.38871e-014 -6.04305e-014
lhumerus -32.5149 -34.0177 97.9995
lradius 89.0017
lwrist -4.27023
lhand -41.9618 -27.3725
lfingers 7.12502
lthumb -14.8584 2.07475
rfemur -32.1129 -4.362 16.5622
rtibia 36.3691
rfoot -7.4098 15.9437
rtoes -35.5454
lfemur 6.81218 -4.15991 -17.0743
ltibia 52.5678
lfoot -4.13169 13.9116
ltoes -2.75918
196
root -10.6939 18.3929 4.15867 -186.656 -229.786 -196.153
lowerback -2.90071 -4.3797 7.48618
upperback 6.64011 -6.49692 2.30481
thorax 8.09843 -2.75771 -2.32181
lowerneck -3.19102 7.48156 4.0161
upperneck 5.30977 10.1822 -6.33756
head 2.86681 4.97546 -2.37154
rclavicle 6.7388e-014 3.97569e-015
rhumerus -56.4063 5.71875 -90.2543
rradius 78.4165
rwrist -0.556752
rhand -22.9563 23.6725
rfingers 7.12502
rthumb 3.48525 -6.27879
lclavicle 6.7388e-014 3.97569e-015
lhumerus -33.2268 -33.5235 98.6477
lradius 88.2283
lwrist -4.68809
lhand -42.2119 -27.6629
lfingers 7.12502
lthumb -15.0993 1.76637
rfemur -31.4845 -4.30933 17.0014
rtibia 38.0187
rfoot -8.9579 16.0647
rtoes -36.115
lfemur 6.01339 -4.18793 -16.5424
ltibia 55.435
lfoot -4.53085 12.8003
ltoes -2.4079
197
root -10.511 18.2917 4.37172 -187.604 -229.998 -196.823
lowerback -2.4571 -4.20742 7.92009
upperback 6.76932 -6.25691 2.44118
thorax 7.97848 -2.61679 -2.36248
lowerneck -3.54718 7.41618 4.17726
upperneck 5.38683 10.0952 -6.53842
head 2.97901 4.92273 -2.45752
rclavicle 6.1822e-014 -2.06736e-014
rhumerus -55.4873 5.99833 -90.5014
rradius 78.4309
rwrist -1.76744
rhand -22.9079 23.5576
rfingers 7.12502
rthumb 3.53207 -6.39288
lclavicle 6.1822e-014 -2.06736e-014
lhumerus -33.994 -32.9572 99.3168
lradius 87.3858
lwrist -5.0901
lhand -42.3096 -27.6894
lfingers 7.12502
lthumb -15.1934 1.73275
rfemur -30.9694 -4.10912 17.4219
rtibia 39.7322
rfoot -10.876 15.8666
rtoes -36.8144
lfemur 4.97628 -4.12039 -15.9587
ltibia 58.2461
lfoot -4.86153 11.1623
ltoes -3.1524
198
root -10.3312 18.191 4.58087 -188.523 -230.154 -197.459
lowerback -1.99906 -3.99497 8.28377
upperback 6.9239 -5.95551 2.60316
thorax 7.89579 -2.44829 -2.33672
lowerneck -3.95913 7.32376 4.40572
upperneck 5.36728 9.96789 -6.84876
head 3.07866 4.84823 -2.59477
rclavicle -4.27387e-014 7.95139e-015
rhumerus -54.3653 6.34225 -90.7276
rradius 78.3057
rwrist -2.75165
rhand -23.1841 23.2776
rfingers 7.12502
rthumb 3.26531 -6.67713
lclavicle -4.27387e-014 7.95139e-015
lhumerus -34.6472 -32.3355 99.969
lradius 86.5152
lwrist -5.36137
lhand -42.0962 -27.5415
lfingers 7.12502
lthumb -14.9878 1.89609
rfemur -30.4653 -3.98456 17.8519
rtibia 41.4564
rfoot -12.9455 15.6477
rtoes -37.7507
lfemur 3.82487 -3.89661 -15.3463
ltibia 61.008
lfoot -5.20221 9.52813
ltoes -5.10566
199
root -10.1517 18.091 4.78529 -189.561 -230.272 -198.089
lowerback -1.41878 -3.77866 8.59645
upperback 7.14247 -5.63249 2.80952
thorax 7.82527 -2.27086 -2.23119
lowerneck -4.49625 7.23873 4.53632
upperneck 5.35572 9.85186 -7.14826
head 3.19824 4.77446 -2.70781
rclavicle -3.3197e-014 -1.74931e-014
rhumerus -52.9642 6.67469 -90.8604
rradius 77.8977
rwrist -3.51017
rhand -23.6383 22.9937
rfingers 7.12502
rthumb 2.82669 -6.96734
lclavicle -3.3197e-014 -1.74931e-014
lhumerus -35.2023 -31.6495 100.639
lradius 85.636
lwrist -5.57151
lhand -41.7249 -27.1825
lfingers 7.12502
lthumb -14.6301 2.28146
rfemur -29.7858 -3.97462 18.2786
rtibia 43.1291
rfoot -14.9822 15.4585
rtoes -38.4658
lfemur 2.73083 -3.55071 -14.7146
ltibia 63.7323
lfoot -5.75385 7.97608
ltoes -5.58704
200
root -9.97405 17.9912 4.98622 -190.599 -230.391 -198.748
lowerback -0.869276 -3.55394 8.89118
upperback 7.38789 -5.29883 3.03174
thorax 7.80808 -2.08589 -2.10512
lowerneck -5.07241 7.15918 4.64995
upperneck 5.28593 9.73295 -7.37195
head 3.29876 4.70048 -2.79307
rclavicle 6.2319e-014 -4.69132e-014
rhumerus -51.3437 6.90726 -90.9578
rradius 77.1731
rwrist -4.03066
rhand -23.805 22.2455
rfingers 7.12502
rthumb 2.66569 -7.71761
lclavicle 6.2319e-014 -4.69132e-014
lhumerus -35.6342 -30.9658 101.225
lradius 84.7517
lwrist -5.69734
lhand -41.2765 -26.8426
lfingers 7.12502
lthumb -14.198 2.65212
rfemur -29.0763 -4.07639 18.7254
rtibia 44.716
rfoot -16.8489 15.3263
rtoes -38.886
lfemur 1.48433 -3.01652 -14.0013
ltibia 66.459
lfoot -6.41371 6.42147
ltoes -6.05347
201
root -9.79951 17.8929 5.18211 -191.618 -230.562 -199.362
lowerback -0.243303 -3.3541 9.14477
upperback 7.62441 -4.97943 3.22076
thorax 7.73573 -1.91161 -1.99042
lowerneck -5.62708 7.09488 4.80933
upperneck 5.20572 9.62772 -7.57068
head 3.39402 4.63512 -2.87944
rclavicle -3.46879e-014 -8.34896e-015
rhumerus -49.5712 7.1351 -91.0687
rradius 76.097
rwrist -4.29448
rhand -23.9323 21.655
rfingers 7.12502
rthumb 2.54271 -8.30955
lclavicle -3.46879e-014 -8.34896e-015
lhumerus -36.0363 -30.2559 101.704
lradius 83.8263
lwrist -5.75077
lhand -40.8226 -26.5119
lfingers 7.12502
lthumb -13.7607 3.01301
rfemur -28.2874 -4.16293 19.0919
rtibia 46.1828
rfoot -18.471 15.2596
rtoes -38.6776
lfemur 0.0943085 -2.37537 -13.2781
ltibia 69.2022
lfoot -6.99737 5.16271
ltoes -6.26149
